HIERARCHY
ROOT Hips
{
  OFFSET 2.26061 22.2878 23.7974
  CHANNELS 6 Xposition Yposition Zposition Zrotation Xrotation Yrotation
  JOINT LeftUpLeg
  {
    OFFSET 8.64259 1.95398 -2.38835
    CHANNELS 3 Zrotation Xrotation Yrotation
    JOINT LeftLeg
    {
      OFFSET 43.7702 0 0
      CHANNELS 3 Zrotation Xrotation Yrotation
      JOINT LeftFoot
      {
        OFFSET 40.6238 0 0
        CHANNELS 3 Zrotation Xrotation Yrotation
        JOINT LeftToeBase
        {
          OFFSET 12.7242 0 0
          CHANNELS 3 Zrotation Xrotation Yrotation
          End Site
          {
            OFFSET 0 0 0
          }
        }
      }
    }
  }
  JOINT RightUpLeg
  {
    OFFSET -8.2249 1.95398 -2.59336
    CHANNELS 3 Zrotation Xrotation Yrotation
    JOINT RightLeg
    {
      OFFSET 43.5653 0 0
      CHANNELS 3 Zrotation Xrotation Yrotation
      JOINT RightFoot
      {
        OFFSET 40.6238 0 0
        CHANNELS 3 Zrotation Xrotation Yrotation
        JOINT RightToeBase
        {
          OFFSET 12.7242 0 0
          CHANNELS 3 Zrotation Xrotation Yrotation
          End Site
          {
            OFFSET 0 0 0
          }
        }
      }
    }
  }
  JOINT Spine
  {
    OFFSET 0.165834 0.87714 6.61349
    CHANNELS 3 Zrotation Xrotation Yrotation
    JOINT Spine1
    {
      OFFSET 7.38963 1.71661e-005 0
      CHANNELS 3 Zrotation Xrotation Yrotation
      JOINT Spine2
      {
        OFFSET 11.9445 1.14441e-005 0
        CHANNELS 3 Zrotation Xrotation Yrotation
        JOINT Spine3
        {
          OFFSET 14.7254 4.19617e-005 0
          CHANNELS 3 Zrotation Xrotation Yrotation
          JOINT Spine4
          {
            OFFSET 10.9679 0 0
            CHANNELS 3 Zrotation Xrotation Yrotation
            JOINT RightShoulder
            {
              OFFSET 2.46616 -1.6653 3.69651
              CHANNELS 3 Zrotation Xrotation Yrotation
              JOINT RightArm
              {
                OFFSET 13.0012 0 0
                CHANNELS 3 Zrotation Xrotation Yrotation
                JOINT RightForeArm
                {
                  OFFSET 28.7848 1.52588e-005 0
                  CHANNELS 3 Zrotation Xrotation Yrotation
                  JOINT RightHand
                  {
                    OFFSET 26.5688 1.52588e-005 0
                    CHANNELS 3 Zrotation Xrotation Yrotation
                    End Site
                    {
                      OFFSET 0 0 0
                    }
                  }
                }
              }
            }
            JOINT LeftShoulder
            {
              OFFSET 2.38034 -1.29275 -3.7523
              CHANNELS 3 Zrotation Xrotation Yrotation
              JOINT LeftArm
              {
                OFFSET 16.3182 6.10351e-005 0
                CHANNELS 3 Zrotation Xrotation Yrotation
                JOINT LeftForeArm
                {
                  OFFSET 27.0901 0 0
                  CHANNELS 3 Zrotation Xrotation Yrotation
                  JOINT LeftHand
                  {
                    OFFSET 24.5451 1.52588e-005 0
                    CHANNELS 3 Zrotation Xrotation Yrotation
                    End Site
                    {
                      OFFSET 0 0 0
                    }
                  }
                }
              }
            }
            JOINT Neck
            {
              OFFSET 5.0226 -0.0266342 0
              CHANNELS 3 Zrotation Xrotation Yrotation
              JOINT Head
              {
                OFFSET 6.69363 2.86102e-005 0
                CHANNELS 3 Zrotation Xrotation Yrotation
                End Site
                {
                  OFFSET 0 0 0
                }
              }
            }
          }
        }
      }
    }
  }
}
MOTION
Frames:	10
Frame Time:	0.0416667
36.834 94.9909 -18.6672 102.204 -77.1907 100.938 -175.796 10.6618 82.0973 -27.0271 12.4613 -0.300806 70.2137 9.83233 3.07103 24.9427 -3.07089 0.153994 178.39 19.2692 88.0069 -17.6389 -16.945 -6.69242 55.4779 0.511336 0.597252 44.1028 0.319836 -6.46265 -0.355924 7.68139 -90.0694 11.511 -0.740515 -0.0623876 -0.15971 -0.74254 -0.0297471 -22.6964 -0.687537 -0.282081 -2.68372 -0.687524 -0.282076 92.4243 -53.3969 -96.4833 22.9838 -3.46611 12.2861 -8.17872 -20.7911 -43.9214 -7.57945 -0.874155 4.40115 -105.771 -53.8073 57.403 -13.7125 12.3436 5.79712 4.58523 8.73351 -39.0289 11.9366 0.873716 3.29623 -6.10801 21.9041 -0.262538 1.90079 22.6991 18.5057 
37.8357 94.2516 -13.0198 98.9632 -73.2601 96.6866 -176.844 7.79517 81.1707 -29.1075 13.437 0.562642 74.1183 13.8597 3.67573 26.3429 -1.68688 -1.86575 179.657 21.4799 86.2807 -19.7305 -27.2427 -9.7081 50.4933 2.65154 2.28213 38.0854 0.340679 -4.97034 -0.47655 7.62063 -90.0233 11.6326 -0.958813 0.053879 -0.0379769 -0.955512 0.096019 -22.5758 -0.930678 -0.236806 -2.56314 -0.930669 -0.236801 92.9874 -54.1361 -95.5258 23.2911 -3.30593 14.3681 -7.58822 -19.981 -43.3882 -7.65696 -0.854659 4.22328 -105.673 -53.194 57.2817 -11.523 11.3542 5.33966 5.60082 7.57796 -42.833 11.6098 0.795142 2.85461 -6.04859 23.8166 -1.30807 1.07542 24.6095 20.3681 
38.8887 93.0527 -7.86963 101.102 -68.8453 98.7508 -176.975 6.09073 81.5803 -35.3713 13.7207 1.18101 75.7416 16.5115 5.81018 31.8863 2.50073 -0.982016 -178.396 21.0431 85.823 -30.3591 -22.3337 -11.1139 58.3345 -0.649998 -0.218472 38.8361 0.553058 0.920837 -0.647034 7.76204 -90.1782 11.3487 -1.37062 -0.218638 -0.321517 -1.37892 -0.158096 -22.8615 -1.24155 -0.620516 -2.84884 -1.24155 -0.620528 91.9274 -52.7592 -97.3363 24.8617 -2.89066 15.8656 -8.12192 -19.8178 -43.2307 -6.81207 -0.842831 4.81725 -105.765 -53.4717 57.2708 -10.7055 9.2626 4.80008 5.40884 5.80089 -44.5837 13.4937 0.960857 3.13464 -7.31051 25.0986 0.855785 3.11654 26.0946 20.4581 
40.4063 92.9479 -3.81129 98.2152 -62.6806 97.2693 -175.306 9.22645 83.4337 -43.7897 11.3003 0.747684 70.7828 12.5228 5.8618 39.4443 8.63404 5.20952 -179.4 19.3419 86.3899 -33.7811 -16.1999 -9.74224 62.5656 -2.22016 -1.22237 41.2022 0.638807 0.407983 -0.828463 7.85395 -90.5872 11.1576 -1.92176 -0.981253 -0.512192 -1.96308 -0.895706 -23.0523 -1.53802 -1.5135 -3.03967 -1.53802 -1.51349 92.3486 -52.41 -96.7702 23.6152 -2.77413 13.3686 -6.30009 -19.6541 -40.5155 -8.03199 -0.992922 5.81187 -107.861 -54.3866 54.8219 -10.5467 8.56421 3.30424 1.50126 2.10893 -42.7766 17.8201 1.03883 1.96637 -6.87305 25.294 1.36025 2.93739 26.3189 22.455 
41.8452 93.7724 -0.80364 94.6863 -58.4108 93.5709 -171.059 13.0176 84.4983 -46.7285 3.72064 -1.92692 66.9192 8.78721 3.67219 41.5056 10.9932 12.1011 178.474 17.2266 85.4505 -32.3768 -13.2568 -8.61634 64.7141 -2.90973 -1.58984 40.2089 0.603745 0.910827 -0.665498 7.90949 -90.7864 11.0427 -1.68928 -1.40221 -0.627804 -1.74935 -1.32651 -23.1618 -1.18986 -1.84501 -3.14912 -1.18984 -1.84501 92.2829 -51.2981 -97.0724 22.6594 -2.2023 11.5361 -5.98134 -18.7984 -40.3384 -8.34241 -0.961904 5.23354 -107.98 -54.1722 54.5679 -12.823 9.88557 0.339562 2.11209 4.06988 -40.2391 16.3228 0.960658 2.03364 -4.68693 24.504 0.313873 2.44196 25.5696 24.7296 
43.4245 94.8527 2.12717 91.2195 -53.8506 90.0217 -167.734 16.5822 85.802 -44.836 2.66954 -4.38361 65.3366 6.85329 1.82938 39.9704 9.58871 12.9872 176.344 14.5769 84.5134 -28.9872 -10.86 -7.5098 65.0249 -2.85261 -1.54497 40.1898 0.547186 -0.737619 -0.424295 7.87296 -90.8091 11.1182 -1.22029 -1.49194 -0.552946 -1.28476 -1.4368 -23.0832 -0.715561 -1.78964 -3.07058 -0.715577 -1.78964 92.3269 -51.5214 -96.9648 21.6811 -1.70576 10.464 -7.96951 -19.9655 -42.5379 -9.21552 -1.0689 5.57384 -108.022 -54.0579 54.4613 -14.4511 12.3191 1.2837 4.47767 7.33939 -41.5898 13.4597 0.921509 2.90078 -3.76317 22.4678 -1.3453 4.43405 24.0786 25.0097 
45.1913 95.4113 4.71811 88.2242 -47.0445 87.5202 -167.025 20.4456 86.5555 -39.3713 4.86821 -5.22296 63.6612 5.70273 2.51254 42.2362 11.6161 11.2541 174.035 13.0509 83.9175 -27.5195 -6.21713 -5.73903 65.2578 -2.39833 -1.26842 41.5035 0.49278 -3.03933 -0.362255 7.74377 -90.7795 11.3773 -1.08442 -1.44334 -0.293988 -1.14686 -1.39422 -22.8241 -0.600576 -1.70245 -2.81148 -0.600557 -1.70245 92.7684 -51.3439 -96.3278 21.8263 -2.44679 9.68056 -8.38342 -19.5089 -44.8515 -9.57181 -1.02654 4.82143 -107.946 -53.9095 54.499 -16.4988 14.3605 2.92446 3.3137 8.13184 -39.5663 15.9556 1.29231 4.1579 -2.77702 19.9439 -2.91063 6.05787 21.9604 23.6734 
47.3411 95.7656 7.08342 87.4031 -41.3211 87.0481 -167.299 22.7872 88.0612 -31.7942 2.50529 -5.14499 62.82 4.29922 0.012523 41.286 10.7514 11.6361 172.536 9.89505 83.6395 -25.4922 -1.97842 -4.52482 65.5865 -2.35413 -1.2379 42.5144 0.457109 -4.11399 -0.182587 7.74876 -90.688 11.3707 -0.684259 -1.30139 -0.30074 -0.740866 -1.27004 -22.831 -0.261542 -1.44685 -2.81834 -0.26154 -1.44685 92.165 -51.5476 -97.2046 21.4558 -3.23805 9.87489 -9.05615 -18.9346 -47.853 -10.1703 -0.830922 2.389 -107.735 -54.2478 54.9308 -18.4001 13.9525 5.19533 1.4619 6.90308 -36.2534 16.1742 1.48798 5.2753 -2.52319 16.8865 -2.83097 9.75227 19.4503 21.6999 
49.9557 95.756 9.35531 85.7606 -35.5091 86.5854 -169.06 24.8921 89.5307 -20.7728 3.81715 -4.08114 58.7365 1.12645 0.446121 40.7624 10.1582 10.4629 171.702 7.11243 84.0999 -23.5018 2.34076 -3.49058 65.0874 -1.92917 -0.995701 43.7438 0.415428 -5.00867 -0.0413488 7.67555 -90.522 11.5203 -0.326278 -1.00667 -0.150924 -0.370286 -0.991342 -22.683 -0.00868025 -1.05819 -2.67033 -0.00866819 -1.05819 92.3614 -52.3599 -96.7593 21.0764 -4.50745 8.12638 -7.80376 -18.035 -49.374 -11.3483 -0.894012 2.55483 -106.657 -54.0261 56.2912 -20.1775 12.2452 8.33003 2.4834 7.94114 -34.4426 14.3541 1.33049 5.27597 -1.00219 14.1566 -4.68847 10.779 16.9925 20.1571 
53.3186 95.2434 11.207 84.4618 -30.311 86.8741 -171.228 26.2112 90.939 -10.4855 3.69373 -3.04558 57.3801 0.479048 1.26787 40.2479 9.67396 10.4207 171.157 3.80065 84.8026 -21.4775 6.60471 -2.70509 66.2223 -2.27092 -1.18788 43.6618 0.409205 -5.12363 0.0880862 7.59089 -90.4117 11.6908 -0.0179096 -0.818413 0.01963 -0.0538992 -0.816835 -22.5136 0.228885 -0.785959 -2.50094 0.228899 -0.785958 91.6173 -52.5231 -97.8422 20.3812 -5.27394 7.11792 -7.39914 -17.6082 -50.8677 -11.4832 -0.912236 2.70193 -106.407 -54.4763 56.8196 -20.8287 12.4127 11.3777 1.67456 8.09984 -31.812 13.1595 1.28082 5.65763 -0.98543 11.3519 -4.74892 13.2241 14.1963 16.8926 
